<svg width="260mm" height="260mm" version="1.1" viewBox="0 0 260 260" xmlns="http://www.w3.org/2000/svg"><g transform="translate(6.29 10.06)" clip-rule="evenodd" fill-rule="evenodd" shape-rendering="geometricPrecision"><g transform="matrix(.26458 0 0 .26458 -13.39 -61.56)" image-rendering="optimizeQuality"><path d="m492.5 370.5c16.63 1.98 33.63 2.65 51 2-17.15 0.99-34.49 1.33-52 1-0.16-4.34 1e-3 -8.67 0.5-13 0.49 3.31 0.66 6.65 0.5 10z" fill="#00000a"/><path d="m174.5 623.5c-7.28-0.74-14.62-1.4-22-2-21.33-1-42.66-2-64-3v-35c23.5 0.33 46.83-2e-3 70-1 1.45 0.06 2.79-0.26 4-1 2-1.17 3.5-2.84 4.5-5 0.66-27.33 0.66-54.66 0-82-2.53-5.85-7.03-8.52-13.5-8-21.64 2.02-43.31 3.69-65 5-0.16-12.33 1e-4 -24.67 0.5-37 5.67-18.33 17.83-29.83 36.5-34.5 10.14-1.51 20.14-3.01 30-4.5 15.12-1.12 30.12-3.12 45-6l1 1c-10.04 5.4-16.21 13.74-18.5 25-2.73 22.02 2.26 42.02 15 60 10.55 13.45 24.22 19.11 41 17 2.34 7.03 5.51 13.69 9.5 20-23.26 5.76-38.09 20.09-44.5 43-1.22 9.21 0.6 17.71 5.5 25.5-12.68 6-24.34 13.5-35 22.5z" fill="#f0eee8"/><path d="m492.5 370.5c0.16-3.35-2e-3 -6.68-0.5-10-0.49 4.32-0.66 8.65-0.5 13 17.5 0.33 34.84-3e-3 52-1 137.49 1.83 252.99 52.5 346.5 152 20.74 21.51 39.07 44.85 55 70 22.3 34.92 34.14 73.09 35.5 114.5 0.95 31.24-6.21 60.41-21.5 87.5-2.04 3.44-4.54 6.44-7.5 9 0.54-1.89 1.54-3.56 3-5-4.21-6.6-3.04-8.26 3.5-5 0.66-1 0.66-2 0-3-1.66-0.66-3.33-1.33-5-2l-1 1c-0.9-1.27-2.06-2.27-3.5-3 0.82-0.95 0.99-1.95 0.5-3-1.09 1.84-2.42 3.51-4 5-0.39-0.22-0.56-0.56-0.5-1 7.14-9.61 12.14-20.28 15-32 2.41-8.83 4.08-17.83 5-27 1.51-15.37 1.17-30.71-1-46-26.21-1.03-51.88 2.13-77 9.5-15.12 6.28-26.12 16.78-33 31.5-5.09 8.61-8.42 17.94-10 28-0.94 4.9-1.27 9.9-1 15-1.07 0.73-1.4-1.26-1-6-0.06-5.42 0.59-10.76 2-16-0.02-1.52-0.69-2.69-2-3.5 0.94-0.48 1.94-0.64 3-0.5 1.5-6 3.83-11.67 7-17-1.63-1.18-3.3-1.18-5 0-1.29-0.59-2.13-1.59-2.5-3-0.49 1.29-0.65 2.62-0.5 4-1.62-0.14-2.79 0.52-3.5 2-2.6 7.17-4.93 14.83-7 23-0.38 0.55-0.88 0.88-1.5 1v-2c2.19-9.58 5.19-18.92 9-28 0.66 0 1-0.33 1-1 14.5-27.61 37.5-42.78 69-45.5 16.6-2.16 33.26-3.32 50-3.5-4.29-20.05-11.46-39.05-21.5-57-13.08-21.92-27.92-42.58-44.5-62-38.96 0.09-77.96-0.07-117-0.5-15.14-2.15-28.81-7.82-41-17-33.82-25.07-67.82-49.91-102-74.5-4.88-7.33-3.55-13.17 4-17.5 40.33-0.33 80.66-0.66 121-1-24.32-13.99-49.99-24.99-77-33-62.68-18.44-126.69-25.94-192-22.5-1.6 6.54-3.27 13.04-5 19.5 1.06 1.18 2.39 1.68 4 1.5-1.38 1.3-2.88 1.3-4.5 0 0.12-2.98 0.12-5.98 0-9-0.33 1-0.66 2-1 3-1.5-2.21-3.34-4.04-5.5-5.5l1-1c-1.21-1.43-1.88-3.1-2-5 1-2.34 1-4.51 0-6.5 1.16-7.97 2.16-15.97 3-24-0.35-6.24-1.35-12.24-3-18-1.95-8.7-4.62-17.2-8-25.5 0.33-0.5 0.66-1 1-1.5 0.91 0.62 1.91 0.96 3 1 6.64 4.47 12.14 10.14 16.5 17-0.7-7.07-3.36-13.41-8-19-6.39-8.07-14.23-14.24-23.5-18.5 5.82-4.75 12.16-8.75 19-12-8.39-0.28-16.73-0.44-25-0.5 1.49-4.28 2.32-8.61 2.5-13-2.79 3.79-5.96 7.29-9.5 10.5-1 0.66-2 0.66-3 0-3.48-7.81-7.81-14.97-13-21.5-3.38-6.22-8.05-11.39-14-15.5-6.54-4.62-13.54-7.46-21-8.5 4.35 6.71 8.18 13.71 11.5 21 0.78 1.44 0.61 2.77-0.5 4-34.14-19.26-70.48-24.76-109-16.5-26.74 7.95-49.58 22.11-68.5 42.5-9.14 10.28-17.3 21.28-24.5 33l1 1c2.88-0.7 5.55-1.7 8-3 3.46-0.32 6.79-0.32 10 0-5.36 8.04-9.02 16.71-11 26-3 24.11 1.82 47.44 14.5 70 1 1.33 2 2.66 3 4 0.39-0.22 0.56-0.56 0.5-1h1c0.96-2.16 1.8-4.49 2.5-7 0.65 3.24 2.15 4.07 4.5 2.5l-1-1c2.01-0.45 3.85-1.28 5.5-2.5 0.16 0.66 0.33 1.33 0.5 2-1.51 9.59-2.18 19.26-2 29-0.27 11.09 0.39 20.09 2 27 0.93 1.06 1.26 2.4 1 4-0.43 23.35 6.56 44.35 21 63 4.41 4.42 9.07 8.42 14 12 4 2.33 8 4.66 12 7 16.73 11.61 35.23 18.94 55.5 22 6.57-0.55 13.07-1.55 19.5-3 0.43-0.06 0.77 0.1 1 0.5-0.66 0.33-1.33 0.66-2 1 6.66 1.97 6.66 2.64 0 2-0.56 1.56 0.1 2.89 2 4-0.11 1.26-0.44 2.6-1 4 3.15 0.6 6.15 0.1 9-1.5 0.6 0.12 0.94 0.45 1 1-26.23 9.09-51.06 6.09-74.5-9-0.49 4.65-0.66 9.32-0.5 14 8.49 3.61 16.83 7.61 25 12-0.06 0.54-0.39 0.87-1 1-8.44-4.47-16.94-8.47-25.5-12-2.73 0.86-2.9 1.69-0.5 2.5-0.67 1.75-1 3.41-1 5 1.44 0.37 2.44 1.21 3 2.5-4.34-1.58-8.51-3.58-12.5-6-0.38 0.55-0.88 0.88-1.5 1 0.08-0.99-0.24-1.82-1-2.5-7.3-2.98-14.3-6.48-21-10.5-12.98-5.97-21.65-15.64-26-29-0.23-0.59-0.73-0.93-1.5-1-11.48 5.64-18.65 14.64-21.5 27-0.86 6.59 1.14 12.09 6 16.5 1.66 0.66 3.33 0.66 5 0-1.19-0.65-1.19-1.15 0-1.5 4.91 2.03 9.41 4.7 13.5 8-0.75-2.21-1.58-4.54-2.5-7 5.22 8.55 12.55 14.55 22 18 15.62 6.06 31.95 8.73 49 8 4.26 6.86 8.26 13.86 12 21-10.46-1.44-20.46-4.44-30-9l-1 1c1.04 6.48 2.37 12.81 4 19-3.83-3.98-8.16-7.48-13-10.5-18.42-9.81-36.75-19.81-55-30-3.09-0.65-6.09-0.31-9 1 2.12 1.73 2.95 3.9 2.5 6.5-0.27-0.91-0.77-1.58-1.5-2 0.01-1.98-0.98-2.98-3-3-10.38 4.07-19.71 9.73-28 17-5.7 4.7-10.7 10.03-15 16-8.99 12.48-16.32 25.98-22 40.5 2.97 2.49 5.97 4.99 9 7.5-3.19-1.51-6.35-3.18-9.5-5-5.12 12.2-9.95 24.53-14.5 37-0.59-0.23-0.93-0.73-1-1.5 2.13-6.07 4.47-12.07 7-18-0.45-3.33-1.45-3.83-3-1.5-2.27-0.47-4.27-1.47-6-3-2.2 3.98-4.2 7.98-6 12 5.55-17.1 12.22-33.77 20-50 7.66-15 17.32-28.67 29-41 10.65-8.99 22.31-16.49 35-22.5-4.89-7.78-6.72-16.28-5.5-25.5 6.4-22.9 21.23-37.23 44.5-43-3.98-6.3-7.15-12.97-9.5-20-16.77 2.11-30.44-3.54-41-17-12.73-17.98-17.73-37.98-15-60 2.28-11.26 8.45-19.59 18.5-25l-1-1c-14.87 2.87-29.87 4.87-45 6 3.48-1.03 7.15-1.86 11-2.5-2.4-0.18-4.73-0.68-7-1.5 3.35-0.88 3.85-2.54 1.5-5-3.78-4.31-5.61-3.98-5.5 1-1.77-1.32-2.1-2.82-1-4.5-6.34-0.02-12.67 0.47-19 1.5-1.86-7e-3 -3.53-0.34-5-1 24.99-3.33 49.99-6.66 75-10-7.18-19.53-8.84-39.53-5-60-3.68 0.16-7.34-1e-3 -11-0.5-1.94-2.15-2.44-4.65-1.5-7.5 6.22-16.12 15.22-30.45 27-43 17.07-19.42 37.24-34.59 60.5-45.5 34.1-12.15 68.43-12.65 103-1.5 0.33-0.16 0.66-0.33 1-0.5-10.66-14.3-7.33-19.3 10-15 25.59 4.62 44.76 18.12 57.5 40.5 2.71-4.79 5.04-9.79 7-15 2.28-2.48 4.78-2.65 7.5-0.5 3.13 2.38 4.96 5.55 5.5 9.5 0.49 4.98 0.66 9.98 0.5 15 10.7 0.29 20.7 3.12 30 8.5 2.76 3.6 2.43 6.94-1 10-4.82 2.24-9.49 4.74-14 7.5 19.84 18.36 26.17 40.53 19 66.5-2.62 2.01-5.12 1.85-7.5-0.5-0.18 3.19-0.68 6.19-1.5 9z" fill="#0f2b40"/><path d="m465.5 353.5c-5.28-2.64-10.28-5.81-15-9.5-0.98-0.59-1.65-0.25-2 1 7.15 22.78 12.65 45.95 16.5 69.5 2.33-1.66 4.66-3.33 7-5 1.99-8.31 3.83-16.65 5.5-25 1 1.98 1 4.15 0 6.5 0.11 1.89 0.78 3.56 2 5l-1 1c2.15 1.45 3.99 3.29 5.5 5.5 0.33-1 0.66-2 1-3 0.12 3.01 0.12 6.01 0 9 1.61 1.3 3.11 1.3 4.5 0 15.97 6.92 23.64 19.25 23 37-0.3 17.4-5.13 33.4-14.5 48-2.66 3.83-5.83 7.16-9.5 10-0.43 0.06-0.77-0.1-1-0.5 3.07-2.73 5.74-5.73 8-9-3.26-0.86-3.59-2.2-1-4-1.5-2.16-2.66-2-3.5 0.5-0.55-1.85 0.11-3.18 2-4 0.71 0.95 1.55 1.11 2.5 0.5-1.98-1.31-3.15-3.15-3.5-5.5-0.7 0.88-1.54 1.54-2.5 2 5.9-11.43 9.23-23.6 10-36.5 0.95-10.51-2.71-18.84-11-25-4.14-1.96-8.14-1.63-12 1-7.56 4.96-10.23 11.79-8 20.5 3.47-3.57 7.47-6.4 12-8.5 2.66-0.66 5.33-0.66 8 0 2.1 1.73 2.43 3.73 1 6-5.22 2.43-9.89 5.6-14 9.5 5.77 8.69 6.43 17.69 2 27-1.32 0.17-2.48-0.16-3.5-1-0.85-3.96-1.51-7.96-2-12-2.33-2.66-4.66-2.66-7 0-1.43 10.85-3.26 21.68-5.5 32.5 0.24 2.94 1.91 4.11 5 3.5 6.02-0.35 11.35-2.35 16-6-5.95 6.64-13.28 8.64-22 6-0.97 0.47-1.81 1.14-2.5 2 1.87-4.39 2.87-9.05 3-14-0.33 0.66-0.66 1.33-1 2-2.37-0.52-4.54-2.02-6.5-4.5 1.1-2.4 1.26-4.9 0.5-7.5-1 4.33-2 8.66-3 13-0.46-0.59-0.63-1.26-0.5-2 0.66-4.66 1.33-9.33 2-14 4.59-34.87 2.26-69.21-7-103-3.03-13.79-6.53-27.45-10.5-41-11.83 12.49-26.33 19.49-43.5 21 1.32-8.12 2.82-16.12 4.5-24-21.38 19.44-46.55 28.94-75.5 28.5-1.89-1.8-2.39-3.97-1.5-6.5 4.55-5.51 8.55-11.17 12-17-23.44 13.98-48.61 23.31-75.5 28-3.39 18-6.89 36-10.5 54-1.58 16.97-1.74 33.97-0.5 51-1.6-6.9-2.27-15.9-2-27-0.18-9.73 0.48-19.4 2-29-0.16-0.66-0.33-1.33-0.5-2-1.64 1.21-3.48 2.05-5.5 2.5l1 1c-2.34 1.57-3.84 0.74-4.5-2.5-0.69 2.5-1.53 4.83-2.5 7-0.16-2.68 3e-3 -5.35 0.5-8 5.15-18.08 9.15-36.41 12-55 3.29-2.89 7.12-4.56 11.5-5 0.29-3.7 1.29-7.2 3-10.5-7.33-0.11-14.67-0.11-22 0 6.05-5.05 12.38-9.71 19-14 10.79-6.81 21.96-12.98 33.5-18.5-0.03 2.09-0.69 4.09-2 6-6.12 8.13-11.46 16.8-16 26-1.07 2.56-1.57 5.22-1.5 8 9.15-2.66 18.15-5.82 27-9.5 21.5-10.26 42.83-20.09 64-29.5-7.4 12.9-15.4 25.4-24 37.5 12.66-2.67 24.66-7.33 36-14 11.43-8.26 22.43-17.09 33-26.5 1.38 0.5 2.04 1.5 2 3 0.56 2.96 0.9 5.96 1 9-0.65 6.74-1.48 13.41-2.5 20 12.21-6.1 22.21-14.77 30-26 10.77 14.27 20.94 28.93 30.5 44z" fill="#102a41"/><path d="m841.5 721.5c-31.32-10.83-62.32-22.49-93-35-71.94-31.14-147.28-46.81-226-47-13.7-17.35-31.03-29.51-52-36.5 8.23-10.16 10.73-21.66 7.5-34.5-5.63-16.13-16.46-27.13-32.5-33 4.29-6.87 7.62-14.21 10-22 12.59 1.76 23.59-1.56 33-10 3.66-2.83 6.83-6.16 9.5-10 9.36-14.6 14.19-30.6 14.5-48 0.64-17.74-7.02-30.08-23-37-1.6 0.18-2.93-0.31-4-1.5 1.72-6.45 3.39-12.95 5-19.5 65.31-3.44 129.31 4.05 192 22.5 27 8 52.67 19 77 33-40.33 0.33-80.66 0.66-121 1-7.55 4.32-8.88 10.16-4 17.5 34.17 24.58 68.17 49.42 102 74.5 12.18 9.17 25.85 14.84 41 17 39.03 0.43 78.03 0.59 117 0.5 16.57 19.41 31.41 40.07 44.5 62 10.03 17.94 17.2 36.94 21.5 57-16.73 0.17-33.39 1.33-50 3.5-31.49 2.71-54.49 17.88-69 45.5z" fill="#f1efe8"/><path d="m443.5 372.5c-0.62 0.41-0.95 1.08-1 2 9.03 31.48 11.36 63.48 7 96 7e-3 1.86 0.34 3.53 1 5-0.66 4.66-1.33 9.33-2 14-6.22 36.9-27.22 61.24-63 73-9.67 4.05-19.67 7.22-30 9.5-12.94 1.74-25.27-0.25-37-6-9.5-4.25-18.84-8.75-28-13.5-4-2.33-8-4.66-12-7-10.08-8.84-18.25-19.18-24.5-31-5.47-14.19-8.97-28.86-10.5-44 0.26-1.59-0.06-2.93-1-4-1.24-17.02-1.08-34.02 0.5-51 3.61-17.99 7.11-35.99 10.5-54 26.89-4.68 52.05-14.01 75.5-28-3.44 5.82-7.44 11.49-12 17-0.89 2.52-0.39 4.69 1.5 6.5 28.94 0.44 54.11-9.06 75.5-28.5-1.67 7.87-3.17 15.87-4.5 24 17.16-1.5 31.66-8.5 43.5-21 3.96 13.54 7.46 27.2 10.5 41z" fill="#f5bc99"/><path d="m426.5 436.5c-3.43 3.61-6.77 7.44-10 11.5-3.48 2.91-7.48 4.41-12 4.5 9.45-5.27 12.62-13.27 9.5-24-0.79-2.08-1.95-3.92-3.5-5.5 2.09 0.03 4.09 0.69 6 2 3.94 3.43 7.27 7.26 10 11.5z" fill="#eeedea"/><path d="m426.5 436.5c-2.72-4.23-6.05-8.06-10-11.5-1.9-1.3-3.9-1.96-6-2 1.54 1.57 2.7 3.41 3.5 5.5 3.12 10.72-0.04 18.72-9.5 24h-7c-8.79-4.25-12.29-11.25-10.5-21 0.93-3.7 2.76-6.87 5.5-9.5-2.77 0.37-5.44 1.37-8 3-2.89 2.72-5.56 5.56-8 8.5-2.37-6.42-0.71-11.59 5-15.5 12.9-7.14 25.9-7.14 39 0 2.87 2.53 5.37 5.37 7.5 8.5 0.16 1.66 0.33 3.33 0.5 5-0.05 2.14-0.72 3.8-2 5z" fill="#10293e"/><path d="m319.5 433.5c-3.13-2.62-6.13-5.46-9-8.5-1.9-1.3-3.9-1.96-6-2 1.54 1.57 2.7 3.41 3.5 5.5 2.75 10.6-0.41 18.6-9.5 24h-6c-6.35-1.52-10.18-5.52-11.5-12-1.78-7.3 0.04-13.47 5.5-18.5-7.88 2.03-13.54 6.86-17 14.5-0.89 1.09-1.73 1.09-2.5 0-1.94-6.82-0.11-12.32 5.5-16.5 13.08-8.75 26.75-9.75 41-3 6.4 3.96 8.4 9.46 6 16.5z" fill="#0f293e"/><path d="m389.5 385.5c7.67-0.16 15.34 0 23 0.5 9.05 1.44 16.55 5.6 22.5 12.5 1.12 1.84 1.62 3.84 1.5 6-7.48-2.65-15.14-4.82-23-6.5-6.33-0.66-12.66-0.66-19 0-6.25 1.81-12.58 2.81-19 3-3.11-1.72-3.78-4.22-2-7.5 4.87-3.77 10.21-6.43 16-8z" fill="#0f283f"/><path d="m285.5 384.5c10.29-0.41 20.29 1.09 30 4.5 5.55 1.53 7.72 5.03 6.5 10.5l-1.5 1.5c-6.71-0.34-13.38-1.34-20-3-6.33-0.66-12.66-0.66-19 0-7.84 1.7-15.51 3.87-23 6.5 1.21-4.73 3.87-8.56 8-11.5 6.12-3.53 12.45-6.36 19-8.5z" fill="#0f2b41"/><path d="m211.5 343.5c-1.04 26.13 4.95 50.47 18 73 0.06 0.43-0.1 0.77-0.5 1-1-1.33-2-2.66-3-4-12.67-22.55-17.5-45.88-14.5-70z" fill="#0f1c3e"/><path d="m477.5 342.5c1.64 5.75 2.64 11.75 3 18-0.83 8.03-1.83 16.03-3 24-1.67 8.35-3.5 16.68-5.5 25-2.33 1.66-4.66 3.33-7 5-3.84-23.54-9.34-46.71-16.5-69.5 0.35-1.25 1.01-1.59 2-1 4.71 3.68 9.71 6.85 15 9.5 1.02-0.39 1.19-1.06 0.5-2-5.29-6.93-9.79-14.26-13.5-22 1.05 0.14 2.05-0.01 3-0.5-0.44-1.53-0.77-3.03-1-4.5 0.77-1.21 1.6-1.21 2.5 0 0.87-4.2 3.21-7.2 7-9l5 5c0.75 2.26 0.59 4.43-0.5 6.5 1.21 2.09 2.04 1.92 2.5-0.5 2.39 5.86 4.39 11.86 6 18 0.46-0.59 0.63-1.26 0.5-2z" fill="#d69e5c"/><path d="m429.5 259.5c5.18 6.52 9.52 13.68 13 21.5 1 0.66 2 0.66 3 0 3.53-3.2 6.7-6.7 9.5-10.5-0.17 4.38-1.01 8.71-2.5 13 8.26 0.05 16.6 0.21 25 0.5-6.84 3.25-13.17 7.25-19 12 9.26 4.26 17.1 10.42 23.5 18.5 4.63 5.58 7.3 11.92 8 19-4.36-6.85-9.86-12.52-16.5-17 1.64 0.86 3.31 1.36 5 1.5-4.63-4.62-8.46-9.79-11.5-15.5-2.97-1.9-6.13-3.4-9.5-4.5-2.75-3.48-5.75-6.81-9-10l1-1c-2.62-2.2-5.45-4.03-8.5-5.5-4.09-7.24-7.92-14.57-11.5-22z" fill="#ebc989"/><path d="m429.5 259.5c-6.73-5.55-13.9-10.55-21.5-15-0.65 1.6-0.15 2.77 1.5 3.5-0.85 0.68-1.52 1.52-2 2.5 3.78 3.43 3.94 7.1 0.5 11-1.06 0.59-2.22 0.93-3.5 1-13.62-4.26-27.28-8.42-41-12.5-39.58-8.43-75.58-0.76-108 23-16.51 13.09-31.51 27.76-45 44 0.59 0.46 1.26 0.63 2 0.5-2.44 1.29-5.11 2.29-8 3l-1-1c7.19-11.71 15.35-22.71 24.5-33 18.92-20.38 41.75-34.54 68.5-42.5 38.51-8.26 74.85-2.76 109 16.5 1.11-1.22 1.28-2.55 0.5-4-3.31-7.28-7.14-14.28-11.5-21 7.45 1.03 14.45 3.87 21 8.5 5.94 4.11 10.61 9.27 14 15.5z" fill="#efd192"/><path d="m429.5 259.5c3.57 7.42 7.4 14.75 11.5 22 3.04 1.46 5.87 3.29 8.5 5.5l-1 1c3.24 3.18 6.24 6.51 9 10 3.36 1.09 6.53 2.59 9.5 4.5 3.03 5.7 6.86 10.87 11.5 15.5-1.68-0.13-3.35-0.63-5-1.5-1.08-0.03-2.08-0.37-3-1-0.33 0.5-0.66 1-1 1.5 3.37 8.29 6.04 16.79 8 25.5 0.13 0.73-0.03 1.4-0.5 2-1.6-6.13-3.6-12.13-6-18-0.45 2.42-1.28 2.59-2.5 0.5 1.09-2.06 1.25-4.23 0.5-6.5l-5-5c-3.78 1.79-6.12 4.79-7 9-0.89-1.21-1.72-1.21-2.5 0 0.22 1.46 0.55 2.96 1 4.5-0.94 0.48-1.94 0.64-3 0.5 3.7 7.73 8.2 15.06 13.5 22 0.69 0.93 0.52 1.6-0.5 2-9.55-15.06-19.72-29.72-30.5-44-7.78 11.22-17.78 19.89-30 26 1.01-6.58 1.84-13.25 2.5-20-0.09-3.03-0.43-6.03-1-9 0.04-1.5-0.61-2.5-2-3-10.56 9.4-21.56 18.23-33 26.5-11.33 6.66-23.33 11.32-36 14 8.59-12.09 16.59-24.59 24-37.5-21.16 9.4-42.5 19.23-64 29.5-8.84 3.67-17.84 6.83-27 9.5-0.07-2.77 0.42-5.43 1.5-8 4.54-9.19 9.87-17.86 16-26 1.3-1.9 1.96-3.9 2-6-11.53 5.51-22.7 11.68-33.5 18.5-6.61 4.28-12.94 8.94-19 14 7.32-0.11 14.66-0.11 22 0-1.7 3.29-2.7 6.79-3 10.5-4.37 0.43-8.2 2.1-11.5 5-2.85 18.58-6.85 36.91-12 55-0.49 2.64-0.66 5.31-0.5 8h-1c-13.04-22.52-19.04-46.86-18-73 1.97-9.28 5.63-17.95 11-26-3.2-0.32-6.53-0.32-10 0-0.73 0.13-1.4-0.03-2-0.5 13.48-16.23 28.48-30.9 45-44 32.41-23.76 68.41-31.43 108-23 13.71 4.07 27.38 8.23 41 12.5 1.27-0.07 2.43-0.4 3.5-1 3.44-3.89 3.28-7.56-0.5-11 0.47-0.97 1.14-1.81 2-2.5-1.65-0.72-2.15-1.89-1.5-3.5 7.59 4.44 14.76 9.44 21.5 15z" fill="#e2ae68"/><path d="m319.5 433.5c-2.89 10.89-9.89 17.23-21 19 9.08-5.39 12.25-13.39 9.5-24-0.79-2.08-1.95-3.92-3.5-5.5 2.09 0.03 4.09 0.69 6 2 2.86 3.03 5.86 5.87 9 8.5z" fill="#eeeeeb"/><path d="m292.5 452.5c-0.23 0.59-0.73 0.93-1.5 1-9.82-2.47-16.99-8.14-21.5-17 3.45-7.63 9.11-12.46 17-14.5-5.45 5.02-7.28 11.19-5.5 18.5 1.31 6.48 5.14 10.48 11.5 12z" fill="#f1f0ed"/><path d="m489.5 483.5c-2.33 2.66-4.66 5.33-7 8-2.26-4.37-3.93-9.03-5-14 4.43-9.3 3.77-18.3-2-27 4.11-3.89 8.77-7.06 14-9.5 1.43-2.26 1.1-4.26-1-6-2.66-0.66-5.33-0.66-8 0-4.52 2.09-8.52 4.92-12 8.5-2.23-8.7 0.43-15.54 8-20.5 3.85-2.63 7.85-2.96 12-1 8.28 6.15 11.95 14.48 11 25-0.76 12.89-4.09 25.06-10 36.5z" fill="#f3bc98"/><path d="m230.5 467.5c0.16 2.02-5e-3 4.02-0.5 6-0.2-3.12-0.87-6.12-2-9-1-1.33-2-1.33-3 0-0.45 11.63-0.62 22.96-0.5 34-4.93-1.46-9.26-3.96-13-7.5-14.01-16.89-18.84-36.05-14.5-57.5 4.42-11.78 12.25-14.94 23.5-9.5 6.05 5.51 8.55 12.34 7.5 20.5-5.32-6.58-12.15-9.74-20.5-9.5-2.66 2.33-2.66 4.66 0 7 4.56 2.1 8.56 4.94 12 8.5-1.69 2.05-2.86 4.38-3.5 7-0.66 5.33-0.66 10.66 0 16 1.41 2.71 3.41 3.38 6 2 0.01-4.39 0.85-8.56 2.5-12.5 3.8-1.03 5.8 0.46 6 4.5z" fill="#f3bd99"/><path d="m397.5 452.5c-11.07-1.73-18.07-8.07-21-19 2.43-2.93 5.1-5.77 8-8.5 2.55-1.62 5.22-2.62 8-3-2.73 2.62-4.56 5.79-5.5 9.5-1.79 9.74 1.7 16.74 10.5 21z" fill="#f0f0ed"/><path d="m443.5 372.5c9.26 33.78 11.59 68.12 7 103-0.66-1.46-0.99-3.13-1-5 4.36-32.51 2.03-64.51-7-96 0.04-0.91 0.37-1.58 1-2z" fill="#f2d0a5"/><path d="m657.5 459.5c40.49-1.16 81.16-1.33 122-0.5 23.05 13.39 44.72 28.72 65 46 11.63 10.63 22.97 21.63 34 33-33 0.66-66 0.66-99 0-12.12-2.56-23.12-7.56-33-15-28.99-22.15-58.65-43.32-89-63.5z" fill="#2f4e64"/><path d="m477.5 477.5c1.06 4.96 2.73 9.62 5 14-0.66 1-1.33 2-2 3-4.64 3.64-9.97 5.64-16 6-3.08 0.61-4.75-0.55-5-3.5 2.23-10.81 4.06-21.64 5.5-32.5 2.33-2.66 4.66-2.66 7 0 0.48 4.03 1.14 8.03 2 12 1.01 0.83 2.17 1.17 3.5 1z" fill="#dfa17f"/><path d="m230.5 467.5c1.18 10.93 2.85 21.93 5 33-3.98 0.38-7.65-0.28-11-2-0.12-11.03 0.04-22.36 0.5-34 1-1.33 2-1.33 3 0 1.12 2.87 1.79 5.87 2 9 0.49-1.97 0.66-3.97 0.5-6z" fill="#dea181"/><path d="m336.5 459.5c1.14 0.29 1.81 1.12 2 2.5-1.25 4.76-3.08 9.26-5.5 13.5-1.45 5.26 0.38 8.76 5.5 10.5 9.02 1.11 17.86 0.28 26.5-2.5 1.5 0.16 2.33 1 2.5 2.5-4.85 7.84-12.02 11.34-21.5 10.5-9.57 0.71-17.23-2.62-23-10-1.34-11.97 3.15-20.97 13.5-27z" fill="#10283f"/><path d="m243.5 470.5c1.52 15.13 5.02 29.8 10.5 44 6.24 11.81 14.41 22.15 24.5 31-4.92-3.58-9.58-7.58-14-12-14.43-18.65-21.43-39.65-21-63z" fill="#0f1933"/><path d="m155.5 415.5c-9.85 1.48-19.85 2.98-30 4.5-18.66 4.66-30.82 16.16-36.5 34.5-0.49 12.32-0.66 24.66-0.5 37 21.69-1.3 43.35-2.97 65-5 6.46-0.52 10.96 2.14 13.5 8 0.66 27.33 0.66 54.66 0 82-0.99 2.16-2.49 3.82-4.5 5-0.06-0.54-0.39-0.87-1-1-24.29 0.82-48.62 1.32-73 1.5 23.33 0.5 46.66 0.66 70 0.5-23.16 0.99-46.49 1.33-70 1v131c11.6 1.93 23.27 3.1 35 3.5 0.58-1.3 1.25-2.46 2-3.5 1.79-4.01 3.79-8.01 6-12 1.72 1.53 3.72 2.53 6 3 1.54-2.33 2.54-1.83 3 1.5-2.52 5.92-4.86 11.92-7 18 0.07 0.76 0.4 1.26 1 1.5-2.05 4.51-3.72 9.17-5 14-2.11 3.63-3.11 7.3-3 11-3.9 5.97-6.9 12.47-9 19.5 0.59 0.46 1.26 0.63 2 0.5-6.29 11.2-10.62 23.2-13 36-1.38 4.93-2.05 10.09-2 15.5-0.2 4.03 0.45 7.87 2 11.5 6.32-6.49 12.48-13.15 18.5-20 2.84-4.31 5.84-4.65 9-1 1.27 2.21 2.27 4.55 3 7 0.33 5.33 0.66 10.66 1 16 3.88-2.22 7.88-2.22 12 0 1.66-1.5 2.83-1.17 3.5 1 0.17 0.99-0.16 1.65-1 2-4.32-2.8-8.98-3.47-14-2-3.75 5.41-6.25 11.41-7.5 18-2.8 4.11-5.97 7.94-9.5 11.5 5.12 7.07 10.12 14.24 15 21.5 2.58-4.17 4.92-8.5 7-13 1.92-1.14 3.92-1.3 6-0.5 3.44 2.05 7.1 3.55 11 4.5-0.41 0.62-1.08 0.95-2 1-3.08-0.97-6.08-1.81-9-2.5 2.53 3.44 4.2 7.28 5 11.5 2.61-0.22 4.28 0.94 5 3.5 2.17 1.58 4.5 2.92 7 4 1.44 0.78 2.77 0.61 4-0.5-2.34-5.07-3.67-10.4-4-16v-11c-0.25-18.13 6.07-33.47 19-46 7.37-4.01 15.04-7.51 23-10.5-3.24-3.12-6.24-6.45-9-10-1.04-0.49-2.04-0.32-3 0.5-1.19-0.34-1.19-0.84 0-1.5-2-0.33-4-0.66-6-1 1.29-0.49 2.62-0.65 4-0.5 0.73 0.13 1.4-0.03 2-0.5-12.37-12.16-26.7-15.99-43-11.5-1.07-0.51-2.24-0.85-3.5-1-8.03 2.71-16.2 4.55-24.5 5.5 1.5-0.83 2-2 1.5-3.5-1.7 1.87-3.53 3.54-5.5 5 2.29-3.62 4.96-6.96 8-10-0.13 0.73 0.03 1.4 0.5 2 11.11-12.5 24.95-17 41.5-13.5 5.05 1.18 10.05 2.18 15 3-9.13-10.79-18.63-21.29-28.5-31.5-5.35-6.37-8.19-13.71-8.5-22 12.88 2.11 24.21 7.44 34 16 6.3 7.13 13.13 13.8 20.5 20 1.13-13.51 0.3-26.84-2.5-40-1.5-19.2-3.5-38.37-6-57.5-0.95-6.34 1.38-8.01 7-5 7.38 9.27 12.22 19.77 14.5 31.5 8.72-1.47 17.22-3.8 25.5-7-2.46 2.33-5.46 3.83-9 4.5-5.59 1.59-11.25 2.76-17 3.5-0.22 8.04 0.27 16.04 1.5 24 4.1-3.8 8.93-6.13 14.5-7 5.33-0.48 7.66 1.85 7 7h11c-1.01 1.26-2.51 1.93-4.5 2-3.17-0.57-6.34-0.74-9.5-0.5-7.05 5.59-10.05 12.76-9 21.5 8.51 4.5 17.51 7.84 27 10 0.14 1.05-0.01 2.05-0.5 3-6.09 4.18-5.59 7.51 1.5 10-1.83-0.55-3.49-0.55-5 0 3.83 8.24 3.83 16.4 0 24.5-3.87 1.52-7.87 1.85-12 1-6.08-1.19-12.08-2.69-18-4.5-2.82 16 2.67 28 16.5 36 5.55-7.2 11.72-14.03 18.5-20.5 14.73-10.58 30.4-12.24 47-5 6.67 4.84 9.33 11.34 8 19.5 4.34 0.16 8.67-1e-3 13-0.5 5.1-2.77 9.93-5.94 14.5-9.5 0.5-10.99 0.66-21.99 0.5-33-2.7 0.07-5.37 0.4-8 1 0.21 1.17-0.11 2.17-1 3-1.19-0.34-1.19-0.84 0-1.5-2.2-0.19-4.2-0.69-6-1.5 5.04-0.79 10.04-1.79 15-3v-31c-3.86-0.25-7.53 0.4-11 2 0.55-1.29 1.55-2.12 3-2.5 2.98-0.49 5.98-0.66 9-0.5v-30c-10.69-1.05-21.36-2.38-32-4-2 0.16-4 0.33-6 0.5-0.55 0.38-0.88 0.88-1 1.5-5.09 2.57-10.09 5.41-15 8.5-3.89 1.26-7.89 1.76-12 1.5-2.69-0.43-4.86-1.76-6.5-4-4.28-4.72-7.11-10.22-8.5-16.5-0.06-1.71 0.6-3.04 2-4 6.36-1.84 12.7-3.84 19-6 2.34-0.83 4.34-2.17 6-4-3.85-3.03-7.52-6.19-11-9.5 4.57 2.55 8.9 5.55 13 9 3.94-1.1 7.94-1.26 12-0.5 13.32 3.23 26.65 6.39 40 9.5v-28c1.87-6.73-0.46-10.73-7-12 0.06-0.54 0.39-0.87 1-1 1.66 0.66 3.33 1.33 5 2 1.16-7.31 1.33-14.64 0.5-22-13-8.19-25.84-16.53-38.5-25-0.55-1.29-1.55-2.12-3-2.5-7e-3 -1.58 0.32-3.24 1-5-2.4-0.8-2.23-1.63 0.5-2.5 8.55 3.52 17.05 7.52 25.5 12 0.6-0.12 0.94-0.45 1-1 9.18 4.85 17.85 10.52 26 17 13.15-10.31 26.98-19.64 41.5-28 0.3-4.02 0.8-8.02 1.5-12-0.33-0.66-0.66-1.33-1-2-5.78 3.22-11.78 5.89-18 8-0.06-0.54-0.39-0.87-1-1-2.84 1.6-5.84 2.1-9 1.5 0.55-1.39 0.88-2.73 1-4-1.89-1.1-2.56-2.43-2-4 6.66 0.64 6.66-0.02 0-2 0.66-0.33 1.33-0.66 2-1-0.22-0.39-0.56-0.56-1-0.5 6.9-2.45 13.57-5.45 20-9 35.77-11.75 56.77-36.09 63-73-0.13 0.73 0.03 1.4 0.5 2 1-4.33 2-8.66 3-13 0.76 2.59 0.6 5.09-0.5 7.5 1.95 2.47 4.12 3.97 6.5 4.5 0.33-0.66 0.66-1.33 1-2-0.12 4.94-1.12 9.6-3 14 0.68-0.85 1.52-1.52 2.5-2 8.71 2.64 16.04 0.64 22-6 0.66-1 1.33-2 2-3 2.33-2.66 4.66-5.33 7-8 0.95-0.45 1.79-1.11 2.5-2 0.34 2.34 1.51 4.18 3.5 5.5-0.94 0.61-1.78 0.45-2.5-0.5-1.88 0.81-2.55 2.14-2 4 0.83-2.5 2-2.66 3.5-0.5-2.59 1.79-2.26 3.13 1 4-2.25 3.26-4.92 6.26-8 9 0.22 0.39 0.56 0.56 1 0.5-9.4 8.43-20.4 11.76-33 10-2.37 7.78-5.7 15.12-10 22 16.03 5.86 26.86 16.86 32.5 33 3.23 12.83 0.73 24.33-7.5 34.5 20.96 6.98 38.29 19.15 52 36.5 11.8 14.94 20.47 31.6 26 50 7.2 22.6 15.2 44.94 24 67 0.87 0.75 1.87 1.25 3 1.5 85.25 7.6 170.58 14.1 256 19.5v-25c0.61-0.11 1.11-0.44 1.5-1 2.06-8.16 4.39-15.83 7-23 0.71-1.47 1.87-2.14 3.5-2-0.15-1.37 0.01-2.7 0.5-4 0.36 1.41 1.2 2.41 2.5 3 1.69-1.18 3.36-1.18 5 0-3.16 5.32-5.49 10.99-7 17-1.05-0.14-2.05 0.01-3 0.5 1.3 0.8 1.97 1.97 2 3.5-1.4 5.23-2.06 10.57-2 16-0.4 4.73-0.07 6.73 1 6 3.07 21.58 15.07 35.75 36 42.5 26.43 5.68 48.43-1.48 66-21.5-0.06 0.43 0.1 0.77 0.5 1 1.57-1.48 2.9-3.15 4-5 0.49 1.04 0.32 2.04-0.5 3 1.43 0.73 2.6 1.73 3.5 3l1-1c1.66 0.66 3.33 1.33 5 2 0.66 1 0.66 2 0 3-6.54-3.26-7.71-1.6-3.5 5-1.45 1.44-2.45 3.1-3 5 0.07 1.52-0.59 2.52-2 3-0.82-0.83-1.66-0.49-2.5 1-0.83 97.5-0.66 194.83 0.5 292-4.31 33.81-23.31 53.31-57 58.5-254 0.67-508 0.67-762 0-33.37-6.55-52.04-26.71-56-60.5 1.83-215.33 2.66-431 2.5-647 1.13 1.1 1.96 0.77 2.5-1-0.81-0.71-1.47-1.55-2-2.5 0.9-2.79 1.57-5.62 2-8.5 6.45-15.28 17.45-26.11 33-32.5 6.55-2.03 13.21-3.53 20-4.5 1.46 0.66 3.13 0.99 5 1 6.32-1.02 12.65-1.52 19-1.5-1.1 1.68-0.77 3.18 1 4.5-0.11-4.98 1.71-5.31 5.5-1 2.35 2.45 1.85 4.11-1.5 5 2.26 0.81 4.6 1.31 7 1.5-3.84 0.63-7.51 1.46-11 2.5z" fill="#0f2c42"/><path d="m370.5 516.5c7.78-2.09 15.11-5.26 22-9.5 5.58-1.26 7.41 0.9 5.5 6.5-11.34 8.67-24.17 13.84-38.5 15.5-8.99 0.5-17.99 0.66-27 0.5-10.69-2.51-21.03-6.34-31-11.5-3.86-2.16-5.36-5.32-4.5-9.5 1.46-1.82 3.29-2.32 5.5-1.5 21.22 13.96 43.89 17.12 68 9.5z" fill="#0f293f"/><path d="m524.5 508.5h21c-7.05 33.26-13.71 66.59-20 100h-22c6.37-33.48 13.37-66.81 21-100z" fill="#516773"/><path d="m332.5 529.5c9 0.16 18 0 27-0.5 14.32-1.65 27.15-6.82 38.5-15.5 1.91-5.59 0.08-7.76-5.5-6.5-6.88 4.23-14.21 7.4-22 9.5l21-10.5c7.57-1.92 10.07 0.91 7.5 8.5-13.08 9.98-27.92 15.48-44.5 16.5-5 0.66-10 0.66-15 0-3.13-0.11-5.46-0.61-7-1.5z" fill="#edcca2"/><path d="m588.5 507.5c7.67-0.16 15.34 0 23 0.5 3.77 0.72 7.1 2.22 10 4.5-1.96 5.86-3.3 11.86-4 18-26.63-7.84-42.46 1.82-47.5 29-3.33 27.41 8.16 37.07 34.5 29 1.33 6 1.33 12 0 18-15.82 6.16-31.16 5.33-46-2.5-8.82-8.95-12.82-19.79-12-32.5 0.72-16.68 5.56-32.01 14.5-46 7.27-9.14 16.43-15.14 27.5-18z" fill="#516873"/><path d="m238.5 551.5c-2.91 8.34-7.25 15.84-13 22.5-3.24 1.47-6.57 2.63-10 3.5 2.84-12.35 10.01-21.35 21.5-27 0.76 0.07 1.26 0.4 1.5 1z" fill="#dd4b31"/><path d="m467.5 574.5c-7.5-1.84-14.83-3.84-22-6 4.02-5.61 4.85-11.61 2.5-18 9.11 5.89 15.61 13.89 19.5 24z" fill="#de4b30"/><path d="m290.5 552.5c9.15 4.74 18.49 9.24 28 13.5 11.72 5.74 24.05 7.74 37 6 10.32-2.27 20.32-5.44 30-9.5-6.43 3.54-13.09 6.54-20 9-6.42 1.45-12.92 2.45-19.5 3-20.26-3.05-38.76-10.39-55.5-22z" fill="#eacca3"/><path d="m637.5 508.5c17.67-0.33 35.34 0 53 1-1.33 6.33-2.66 12.66-4 19h-32c-1.59 6.95-2.92 13.95-4 21h27c-0.87 6.35-1.87 12.68-3 19h-29c-1.33 7.33-2.66 14.66-4 22h34c-1.01 6.25-2.35 12.42-4 18.5-18.33 0.5-36.66 0.66-55 0.5 6.35-33.77 13.35-67.44 21-101z" fill="#536974"/><path d="m162.5 581.5c-1.2 0.73-2.54 1.06-4 1-23.33 0.16-46.66 0-70-0.5 24.37-0.17 48.7-0.67 73-1.5 0.6 0.12 0.94 0.45 1 1z" fill="#000615"/><path d="m375.5 582.5c6.21-2.1 12.21-4.77 18-8 0.33 0.66 0.66 1.33 1 2-0.69 3.97-1.19 7.97-1.5 12-14.51 8.35-28.34 17.68-41.5 28-8.14-6.47-16.81-12.14-26-17-8.16-4.38-16.5-8.38-25-12-0.16-4.67 1e-3 -9.34 0.5-14 23.43 15.09 48.27 18.09 74.5 9z" fill="#e0a07f"/><path d="m264.5 580.5c6.69 4.01 13.69 7.51 21 10.5 0.75 0.67 1.08 1.5 1 2.5-14.23 7.43-21.57 3.1-22-13z" fill="#da4b32"/><path d="m259.5 611.5c-9.44-3.44-16.77-9.44-22-18v-3c12.71 0.03 20.38 6.36 23 19-0.04 0.91-0.37 1.58-1 2z" fill="#f0efea"/><path d="m238.5 551.5c4.34 13.35 13.01 23.02 26 29 0.43 16.1 7.76 20.43 22 13 0.61-0.11 1.11-0.44 1.5-1 3.99 2.41 8.15 4.41 12.5 6 12.65 8.47 25.49 16.8 38.5 25 0.83 7.35 0.66 14.68-0.5 22-1.66-0.66-3.33-1.33-5-2-0.6 0.12-0.94 0.45-1 1-4.19-1.04-8.19-2.37-12-4-3.73-7.13-7.73-14.13-12-21-17.04 0.73-33.38-1.93-49-8 0.62-0.41 0.95-1.08 1-2-2.62-12.63-10.28-18.96-23-19v3c0.91 2.45 1.74 4.78 2.5 7-4.08-3.29-8.58-5.96-13.5-8-1.19 0.34-1.19 0.84 0 1.5-1.66 0.66-3.33 0.66-5 0-4.86-4.4-6.86-9.9-6-16.5 3.42-0.86 6.75-2.03 10-3.5 5.74-6.66 10.08-14.16 13-22.5z" fill="#254a63"/><path d="m424.5 609.5c-9 4-18 8-27 12 1.25-6.67 4.25-12.5 9-17.5 5.47 0.2 10.8 1.37 16 3.5 1.21 0.24 1.88 0.91 2 2z" fill="#efeeea"/><path d="m217.5 616.5c0.12 2.15-0.37 4.15-1.5 6-8.72 6.47-18.55 9.14-29.5 8 8.28-7.26 17.61-12.92 28-17 2.01 0.01 3.01 1.01 3 3z" fill="#f0efea"/><path d="m152.5 621.5c7.38 0.59 14.71 1.26 22 2-11.67 12.32-21.33 25.99-29 41-18.39-0.18-36.72-1.18-55-3v-42c13.35 0.7 26.68 1.7 40 3-0.52 0.69-1.19 1.19-2 1.5 2.33 0.66 4.66 0.66 7 0-0.66-0.33-1.33-0.66-2-1 6.51-0.17 12.84-0.67 19-1.5z" fill="#d74731"/><path d="m88.5 618.5c21.33 1 42.66 2 64 3-6.15 0.82-12.48 1.32-19 1.5 0.66 0.33 1.33 0.66 2 1-2.33 0.66-4.66 0.66-7 0 0.8-0.3 1.47-0.8 2-1.5-13.31-1.29-26.64-2.29-40-3v42h-2v-43z" fill="#d73b24"/><path d="m493.5 629.5c-7.34 0.16-14.67 0-22-0.5-3.57-2.73-3.9-5.89-1-9.5 2.06-2.34 4.4-2.51 7-0.5 5.91 2.77 11.24 6.27 16 10.5z" fill="#f0efea"/><path d="m814.5 593.5c12.67-0.16 25.33 0 38 0.5 2.87 0.43 5.54 1.43 8 3 16.58 15.24 31.75 31.74 45.5 49.5 3.65 4.25 4.32 8.91 2 14-0.75 0.62-1.58 1.12-2.5 1.5-13.66 0.66-27.33 0.66-41 0-1.33-0.66-2.66-1.33-4-2-16.2-17.87-32.04-36.03-47.5-54.5-1.11-1.89-1.94-3.89-2.5-6 0.93-2.26 2.26-4.26 4-6z" fill="#0f283d"/><path d="m828.5 606.5c3.81-0.66 7.81-0.99 12-1 4.77-0.1 9.44 0.39 14 1.5 14.76 13.76 28.43 28.43 41 44-9.33 0.66-18.66 0.66-28 0-13.61-14.43-26.61-29.26-39-44.5z" fill="#f1efe9"/><path d="m320.5 640.5c3.8 1.62 7.8 2.95 12 4 6.53 1.26 8.87 5.26 7 12-11.59 2.64-23.26 3.14-35 1.5-4.02-1.67-7.69-3.84-11-6.5-1.62-6.18-2.95-12.51-4-19l1-1c9.53 4.55 19.53 7.55 30 9z" fill="#f0eee9"/><path d="m293.5 651.5c3.3 2.65 6.97 4.82 11 6.5 11.73 1.64 23.4 1.14 35-1.5v28c-13.34-3.1-26.67-6.26-40-9.5-4.05-0.76-8.05-0.6-12 0.5-4.09-3.44-8.42-6.44-13-9-4.18-1.73-8.51-2.23-13-1.5-5.3 4.3-10.3 8.96-15 14-1.24 0.79-2.57 1.29-4 1.5-8.27 3.19-16.77 5.52-25.5 7-2.28-11.72-7.11-22.22-14.5-31.5-5.61-3.01-7.95-1.34-7 5 2.49 19.12 4.49 38.29 6 57.5-5.58 0.04-10.08 2.37-13.5 7-3.76 3.52-5.26 7.86-4.5 13-9.78-8.55-21.11-13.88-34-16 0.3 8.28 3.14 15.62 8.5 22 9.87 10.2 19.37 20.7 28.5 31.5-4.94-0.81-9.94-1.81-15-3-16.55-3.5-30.38 0.99-41.5 13.5-0.46-0.59-0.63-1.26-0.5-2 3.9-10.39 0.57-14.73-10-13-0.73 0.13-1.4-0.03-2-0.5 2.1-7.02 5.1-13.52 9-19.5 4.91-1.61 8.91-4.45 12-8.5-0.4-0.94-1.07-1.61-2-2-2.31-0.49-4.64-0.66-7-0.5 1.27-4.82 2.94-9.49 5-14 4.54-12.46 9.37-24.79 14.5-37 3.14 1.82 6.3 3.48 9.5 5 7.07 5.57 13.74 11.73 20 18.5 3.02 1.14 5.19 0.3 6.5-2.5 0.66-3 0.66-6 0-9-4.55-7.2-9.05-14.37-13.5-21.5 0.16-0.83 0.33-1.66 0.5-2.5 13.95-10.49 13.79-20.83-0.5-31 4.29-5.96 9.29-11.29 15-16 10.94 1.14 20.78-1.52 29.5-8 1.12-1.84 1.62-3.84 1.5-6 0.72 0.41 1.22 1.08 1.5 2 0.45-2.59-0.37-4.76-2.5-6.5 2.9-1.31 5.9-1.65 9-1 18.24 10.19 36.57 20.19 55 30 4.83 3.01 9.16 6.51 13 10.5z" fill="#264a62"/><path d="m231.5 634.5c5.67-0.16 11.34 1e-3 17 0.5 0.45 0.41 0.79 0.91 1 1.5-2.83 6.33-5.66 12.66-8.5 19-2.63 5.8-7.13 8.47-13.5 8-11.16-0.58-19.49-5.74-25-15.5 8.7-6.68 18.37-11.18 29-13.5z" fill="#db4931"/><path d="m522.5 639.5c78.72 0.18 154.06 15.85 226 47 0.72 1.47 2.39 2.63 5 3.5 26.27 10.38 54.11 20.88 83.5 31.5 1.04 1.69 2.21 2.02 3.5 1-3.8 9.08-6.8 18.41-9 28-41.92-9.31-83.25-20.81-124-34.5-51.87-15.6-104.88-24.44-159-26.5-5.52-18.39-14.19-35.05-26-50z" fill="#d74630"/><path d="m445.5 568.5c7.16 2.16 14.5 4.16 22 6 1.12 10.67-2.87 18.67-12 24-0.87-3.65-1.71-7.32-2.5-11-0.72-1.65-1.89-2.15-3.5-1.5-6.58 9.75-14.92 17.59-25 23.5-0.12-1.08-0.78-1.75-2-2-5.19-2.12-10.52-3.29-16-3.5-4.74 4.99-7.74 10.82-9 17.5-9.23 3.9-19.23 7.07-30 9.5-5.04 1.86-6.04 4.86-3 9 3.1 1.75 6.43 2.58 10 2.5 7.98-1.83 15.98-3.33 24-4.5-6.66 5.66-13.33 11.33-20 17-3.47 1.03-6.97 1.86-10.5 2.5-2.69 5-1.19 8.17 4.5 9.5 7.21 1.4 13.88 0.07 20-4 9.66-8.33 19.33-16.66 29-25 12.33-6.83 24.33-14.16 36-22 4.77-1.91 9.44-1.58 14 1-0.75 0.67-1.08 1.5-1 2.5-2.9 3.6-2.57 6.77 1 9.5 7.32 0.5 14.65 0.66 22 0.5 14.76 11.34 26.1 25.5 34 42.5-2.8 0.31-4.47 1.81-5 4.5-0.62 2.59-1.79 4.92-3.5 7-7.69 9.19-15.53 18.19-23.5 27 0.06-0.43-0.1-0.77-0.5-1l-4 4c1.41-16.33 4.74-32.33 10-48 1.6-6.18 1.77-12.35 0.5-18.5-3.76-1.17-6.59-0.01-8.5 3.5-9.31 14.63-14.64 30.63-16 48-6.09 2.62-12.26 5.12-18.5 7.5-5.73 3.77-6.56 8.61-2.5 14.5 4.07 3.91 8.57 7.24 13.5 10 0.98 3.26 1.32 6.6 1 10-1 0.33-1.66 1-2 2-1.01 1.37-2.01 2.7-3 4-12.51-8.4-26.51-14.9-42-19.5-13.33 0.71-25.99 4.21-38 10.5-2.58 2.67-4.25 5.84-5 9.5 0.14 2.15 1.14 3.81 3 5 3.77 2.21 7.77 3.88 12 5 9.32 1.61 18.66 3.11 28 4.5-4.43 3.05-9.1 5.89-14 8.5-2.13 1.42-3.3 3.25-3.5 5.5 9.13 1.25 18.3 2.58 27.5 4 2.61-0.05 4.77-1.05 6.5-3 1.78-6.08 4.95-11.25 9.5-15.5 1.77-0.7 3.61-1.2 5.5-1.5 4.82 0.79 9.65 1.45 14.5 2-0.78 8.3-1.12 16.64-1 25-16.34-0.05-32.68-0.21-49-0.5-6.9 1.01-12.9 3.85-18 8.5-3.14-1.97-6.14-4.14-9-6.5-13.07-2.15-25.41 0.01-37 6.5-1.33-11.66-1.33-23.33 0-35 3.21-0.9 5.88-2.57 8-5 2.53-2.5 3.36-5.5 2.5-9-3.38-3.88-7.21-7.22-11.5-10v-23c4.42 1.9 8.75 4.07 13 6.5 6.47 2.36 13.14 3.03 20 2 2.53-2.7 5.2-5.2 8-7.5 17.46-5.21 34.46-11.71 51-19.5 1.3-0.8 1.97-1.97 2-3.5-2.8-7.64-8.14-12.8-16-15.5-5.49-2.18-11.16-2.84-17-2-4.97 5.31-10.31 10.31-16 15-6.06 3.02-11.73 6.52-17 10.5-2.77 0.07-5.43-0.42-8-1.5-2.32-3.62-4.66-7.29-7-11-4.12-1.89-8.45-2.73-13-2.5-0.16-18 0-36 0.5-54 9.93-8.6 20.43-16.43 31.5-23.5 15.33-8.66 30.66-17.33 46-26 4.82-3.39 9.15-7.22 13-11.5z" fill="#264a63"/><path d="m445.5 645.5c9.46-0.51 18.8 0.32 28 2.5 1.87 1.54 3.37 3.37 4.5 5.5 0.49 4.65 0.66 9.32 0.5 14-16.33-2.96-32.33-7.13-48-12.5-0.45-0.41-0.79-0.91-1-1.5 1.14-1.64 2.48-3.14 4-4.5 4.12-1.19 8.12-2.35 12-3.5z" fill="#db4931"/><path d="m88.5 661.5h2c18.27 1.81 36.6 2.81 55 3-7.78 16.22-14.44 32.89-20 50-0.74 1.03-1.41 2.19-2 3.5-11.72-0.39-23.39-1.56-35-3.5v-53z" fill="#efede7"/><path d="m171.5 646.5c14.29 10.16 14.45 20.5 0.5 31-0.16 0.83-0.33 1.66-0.5 2.5 4.44 7.12 8.94 14.29 13.5 21.5 0.66 3 0.66 6 0 9-1.3 2.8-3.47 3.64-6.5 2.5-6.25-6.76-12.92-12.92-20-18.5-3.02-2.5-6.02-5-9-7.5 5.67-14.51 13-28.01 22-40.5z" fill="#f0efe9"/><path d="m395.5 713.5c4.67-6.13 3.33-10.63-4-13.5-2.93-0.95-5.93-1.45-9-1.5 5.26-3.97 10.93-7.47 17-10.5 5.68-4.68 11.02-9.68 16-15 5.83-0.84 11.5-0.18 17 2 7.85 2.69 13.19 7.86 16 15.5-0.02 1.52-0.69 2.69-2 3.5-16.53 7.78-33.53 14.28-51 19.5z" fill="#f0eee8"/><path d="m274.5 666.5c3.47 3.3 7.14 6.46 11 9.5-1.65 1.82-3.65 3.16-6 4-6.29 2.15-12.63 4.15-19 6-1.39 0.95-2.06 2.28-2 4 1.38 6.27 4.21 11.77 8.5 16.5 1.63 2.23 3.8 3.56 6.5 4-1.41 3.49-2.08 7.16-2 11-6.03-5.12-13.03-8.12-21-9h-11c0.66-5.14-1.66-7.48-7-7-5.56 0.86-10.39 3.19-14.5 7-1.22-7.95-1.72-15.95-1.5-24 5.74-0.73 11.4-1.9 17-3.5 3.53-0.66 6.53-2.16 9-4.5 1.42-0.2 2.75-0.7 4-1.5 4.69-5.03 9.69-9.7 15-14 4.48-0.73 8.81-0.23 13 1.5z" fill="#f0efe9"/><path d="m528.5 705.5c-2.91 8.49-6.91 16.49-12 24-3.93-1.22-7.93-1.72-12-1.5-5.68 5.88-11.02 12.05-16 18.5-0.5 1.02-1.16 1.18-2 0.5 1.55-10.06 2.72-20.23 3.5-30.5 2.04-1.87 3.87-3.87 5.5-6 7.96-8.8 15.8-17.8 23.5-27 1.7-2.07 2.87-4.41 3.5-7 1.12-0.62 2.12-1.45 3-2.5 1.13-0.74 2.13-0.58 3 0.5 3.8 9.08 6.8 18.42 9 28-2.64-0.76-5.3-0.93-8-0.5-0.83 1.01-1.17 2.17-1 3.5z" fill="#f0eee9"/><path d="m964.5 730.5c-37.39 6.65-74.39 4.98-111-5 6.88-14.71 17.88-25.21 33-31.5 25.11-7.36 50.78-10.53 77-9.5 2.17 15.28 2.51 30.62 1 46z" fill="#f1eee8"/><path d="m354.5 683.5c4.54-0.23 8.87 0.6 13 2.5 2.33 3.7 4.67 7.37 7 11 2.56 1.07 5.22 1.57 8 1.5 3.06 0.04 6.06 0.54 9 1.5 7.33 2.86 8.67 7.36 4 13.5-2.79 2.29-5.46 4.79-8 7.5-6.85 1.03-13.52 0.36-20-2-4.24-2.42-8.57-4.59-13-6.5v-29z" fill="#da4831"/><path d="m548.5 689.5c54.12 2.05 107.12 10.89 159 26.5 40.74 13.68 82.07 25.18 124 34.5v27c-85.41-5.39-170.75-11.89-256-19.5-1.12-0.24-2.12-0.74-3-1.5-8.79-22.05-16.79-44.39-24-67z" fill="#f0eee8"/><path d="m300.5 700.5c7.81 5.3 11.97 12.63 12.5 22-4.87 7.35-11.7 10.85-20.5 10.5-7.31-3.32-14.31-7.15-21-11.5-0.08-3.83 0.58-7.5 2-11 4.1 0.26 8.1-0.23 12-1.5 4.9-3.08 9.9-5.92 15-8.5z" fill="#da4931"/><path d="m748.5 686.5c30.67 12.5 61.67 24.17 93 35 0 0.66-0.33 1-1 1-1.28 1.02-2.45 0.69-3.5-1-29.38-10.61-57.22-21.11-83.5-31.5-2.6-0.86-4.27-2.03-5-3.5z" fill="#d52e16"/><path d="m201.5 718.5c2.8 13.15 3.63 26.48 2.5 40-7.36-6.19-14.19-12.86-20.5-20-0.76-5.13 0.73-9.47 4.5-13 3.41-4.62 7.91-6.95 13.5-7z" fill="#da4931"/><path d="m465.5 746.5c-6.11 2.08-12.44 3.91-19 5.5-7.65 3.27-15.31 6.43-23 9.5-9.33-1.38-18.67-2.88-28-4.5-4.22-1.11-8.22-2.78-12-5-1.85-1.18-2.85-2.84-3-5 0.74-3.66 2.41-6.82 5-9.5 12-6.28 24.66-9.78 38-10.5 15.48 4.59 29.48 11.09 42 19.5z" fill="#0f2d43"/><path d="m853.5 725.5c36.6 9.98 73.6 11.65 111 5-0.91 9.16-2.58 18.16-5 27-38.84 4.73-77.51 3.39-116-4 1.57-10.05 4.9-19.38 10-28z" fill="#d84630"/><path d="m327.5 735.5c-4.49 5.33-9.49 10.16-15 14.5-3.75 2.79-7.92 4.62-12.5 5.5-2.25-0.13-4.41-0.63-6.5-1.5-9.09-4.88-18.42-9.21-28-13-4.87-1.22-8.54 0.27-11 4.5-9.48-2.15-18.48-5.49-27-10-1.05-8.73 1.94-15.9 9-21.5 3.15-0.24 6.32-0.07 9.5 0.5 1.98-0.06 3.48-0.73 4.5-2 7.96 0.87 14.96 3.87 21 9 6.68 4.34 13.68 8.17 21 11.5 8.79 0.35 15.62-3.14 20.5-10.5-0.52-9.36-4.68-16.7-12.5-22 0.11-0.61 0.44-1.11 1-1.5 2-0.16 4-0.33 6-0.5 10.63 1.61 21.3 2.94 32 4v30c-3.01-0.16-6.01 2e-3 -9 0.5-1.44 0.37-2.44 1.21-3 2.5z" fill="#254a62"/><path d="m354.5 735.5c4.28 2.78 8.11 6.11 11.5 10 0.86 3.49 0.03 6.49-2.5 9-3 0.92-5.84 2.25-8.5 4-0.5-7.65-0.66-15.32-0.5-23z" fill="#f1f0ec"/><path d="m323.5 767.5c-3.1-3.1-6.94-4.76-11.5-5-8.13 2.74-16.13 5.74-24 9-9.09-3.03-17.92-6.87-26.5-11.5-1.93-0.81-3.93-1.31-6-1.5-7.09-2.48-7.59-5.81-1.5-10 0.48-0.94 0.64-1.94 0.5-3 2.45-4.22 6.12-5.72 11-4.5 9.57 3.78 18.9 8.12 28 13 2.08 0.86 4.24 1.36 6.5 1.5 4.57-0.87 8.74-2.7 12.5-5.5 5.5-4.33 10.5-9.17 15-14.5 3.46-1.59 7.13-2.25 11-2v31c-4.95 1.2-9.95 2.2-15 3z" fill="#f0eee9"/><path d="m129.5 740.5c2.35-0.16 4.69 3e-3 7 0.5 0.92 0.38 1.59 1.05 2 2-3.08 4.05-7.08 6.88-12 8.5-0.11-3.69 0.88-7.36 3-11z" fill="#e04930"/><path d="m470.5 740.5c0.31 3.87-0.01 7.53-1 11 0.31-3.21-0.02-6.21-1-9 0.33-1 1-1.66 2-2z" fill="#974038"/><path d="m843.5 753.5c38.48 7.39 77.15 8.73 116 4-2.86 11.71-7.86 22.38-15 32-17.56 20.02-39.56 27.18-66 21.5-20.92-6.74-32.92-20.91-36-42.5-0.27-5.09 0.05-10.09 1-15z" fill="#f1efe8"/><path d="m468.5 742.5c0.97 2.78 1.31 5.78 1 9v10c-4.84-0.54-9.67-1.2-14.5-2-1.88 0.29-3.72 0.79-5.5 1.5-4.54 4.24-7.71 9.41-9.5 15.5-1.72 1.94-3.88 2.94-6.5 3-9.19-1.41-18.36-2.75-27.5-4 0.19-2.24 1.36-4.07 3.5-5.5 4.89-2.6 9.56-5.44 14-8.5 7.68-3.06 15.35-6.22 23-9.5 6.55-1.58 12.89-3.41 19-5.5 0.98-1.29 1.98-2.62 3-4z" fill="#dc4931"/><path d="m548.5 760.5c4.08-0.45 7.91 0.21 11.5 2 3.84 8.35 7.68 16.69 11.5 25-12.48-6.14-24.48-13.14-36-21 0.59-1.29 1.59-2.13 3-2.5 3.48-1.1 6.81-2.26 10-3.5z" fill="#dc4931"/><path d="m129.5 784.5c-3.04 3.03-5.7 6.37-8 10-5.33 4.49-10.16 9.49-14.5 15-0.46-0.59-0.63-1.26-0.5-2 2.37-12.79 6.7-24.79 13-36 10.57-1.73 13.9 2.6 10 13z" fill="#eeede9"/><path d="m579.5 774.5c85.55 7.23 171.22 12.89 257 17 7.59 14.8 19.26 24.97 35 30.5-29.48 4.53-59.15 6.36-89 5.5-44.58 0.19-88.91-2.97-133-9.5-6.67-1.83-13.01-4.5-19-8-16.68-9.33-32.68-19.67-48-31-1.64-1.12-2.64-2.62-3-4.5z" fill="#2f4e64"/><path d="m255.5 758.5c2.06 0.18 4.06 0.68 6 1.5 8.57 4.62 17.4 8.46 26.5 11.5 7.86-3.25 15.86-6.25 24-9 4.55 0.23 8.39 1.9 11.5 5 1.79 0.8 3.79 1.3 6 1.5-1.19 0.65-1.19 1.15 0 1.5 0.88-0.82 1.21-1.82 1-3 2.62-0.59 5.29-0.92 8-1 0.16 11 0 22-0.5 33-4.56 3.56-9.39 6.72-14.5 9.5-4.32 0.49-8.65 0.66-13 0.5 1.33-8.15-1.32-14.65-8-19.5-16.59-7.24-32.26-5.58-47 5-6.77 6.46-12.94 13.29-18.5 20.5-13.82-7.99-19.32-19.99-16.5-36 5.91 1.8 11.91 3.3 18 4.5 4.12 0.85 8.12 0.52 12-1 3.83-8.09 3.83-16.25 0-24.5 1.5-0.55 3.16-0.55 5 0z" fill="#264a63"/><path d="m194.5 800.5c-8.49-1.15-17.15-1.32-26-0.5-3.94 1.32-7.94 1.99-12 2l-1.5-1.5c-0.23-4.08-0.73-8.08-1.5-12 16.29-4.49 30.62-0.66 43 11.5-0.59 0.46-1.26 0.63-2 0.5z" fill="#eeede8"/><path d="m520.5 792.5c9.82-1.67 13.66 2.32 11.5 12-0.46 1.43-1.29 2.59-2.5 3.5-3.66 0.66-7.33 0.66-11 0-8.81-1.47-17.48-2.97-26-4.5 8.49-5.61 17.82-9.28 28-11z" fill="#efeee9"/><path d="m276.5 798.5c5.73-0.21 11.39 0.28 17 1.5 3.85 1.6 4.85 4.27 3 8-9.71 0.14-19.38 0.8-29 2-6.22 1.95-11.89 4.61-17 8 6.86-9.05 15.53-15.55 26-19.5z" fill="#f5c49f"/><path d="m415.5 799.5c17.85-2.39 32.19 3.44 43 17.5l-12-6c-2.66-0.66-5.33-1.33-8-2-9-0.33-18-0.66-27-1-1.05-1.38-1.22-2.88-0.5-4.5 1.39-1.57 2.89-2.9 4.5-4z" fill="#f4c39e"/><path d="m153.5 788.5c0.76 3.91 1.26 7.91 1.5 12l1.5 1.5c4.05-9e-3 8.05-0.67 12-2 8.84-0.82 17.51-0.65 26 0.5-1.37-0.15-2.7 0.01-4 0.5 2 0.33 4 0.66 6 1-1.19 0.65-1.19 1.15 0 1.5 0.95-0.82 1.95-0.99 3-0.5 2.75 3.54 5.75 6.88 9 10-7.95 2.98-15.62 6.48-23 10.5-4.81-1.9-9.81-2.4-15-1.5-6.62 4.27-12.28 9.44-17 15.5-0.66-2.17-1.83-2.5-3.5-1-4.11-2.22-8.11-2.22-12 0-0.33-5.33-0.66-10.66-1-16-0.72-2.44-1.72-4.78-3-7-3.15-3.65-6.15-3.31-9 1-6.01 6.84-12.17 13.51-18.5 20-1.54-3.63-2.2-7.46-2-11.5-0.05-5.4 0.61-10.56 2-15.5-0.13 0.73 0.03 1.4 0.5 2 4.33-5.5 9.17-10.5 14.5-15 1.96-1.46 3.79-3.12 5.5-5 0.5 1.49 7e-3 2.66-1.5 3.5 8.29-0.94 16.46-2.78 24.5-5.5 1.25 0.14 2.42 0.48 3.5 1z" fill="#254a62"/><path d="m417.5 819.5c17.41-2.85 31.58 2.47 42.5 16 6.84 21.15 8e-3 35.98-20.5 44.5-5.26 1.41-6.93-0.25-5-5-0.52-6.02-3.85-9.18-10-9.5-9.25 2.35-11.92 7.85-8 16.5-4.88 1.07-9.55 2.73-14 5-33 0.66-66 0.66-99 0-3.57-2.63-7.57-4.3-12-5-7.37-0.73-14.71-1.73-22-3-9.1-5.6-16.76-12.76-23-21.5-0.76-13.63 4.23-24.46 15-32.5 4.18-1.79 8.51-3.12 13-4 47.83-0.16 95.5-0.66 143-1.5z" fill="#264b63"/><path d="m930.5 824.5c0.99 6.81 1.32 13.81 1 21-11.44-0.92-22.77-2.58-34-5 11.72-4.03 22.72-9.36 33-16z" fill="#f7f8f9"/><path d="m188.5 876.5c-3.65-3.3-6.32-7.3-8-12-0.16-20.91 10.16-33.58 31-38 1 0.33 2 0.66 3 1-16.79 11.92-25.46 28.26-26 49z" fill="#264b63"/><path d="m280.5 832.5h14v14c4.67-0.16 9.34 1e-3 14 0.5l1.5 1.5c0.8 4.91 0.63 9.75-0.5 14.5-4.94 1.05-9.94 1.55-15 1.5 0.16 3.68-1e-3 7.34-0.5 11-4.66 1.33-9.33 1.33-14 0-0.49-3.98-0.66-7.98-0.5-12-4.67 0.16-9.34-1e-3 -14-0.5-1.13-4.74-1.3-9.58-0.5-14.5l1.5-1.5c4.32-0.49 8.65-0.66 13-0.5-0.27-4.76 0.05-9.43 1-14z" fill="#0f2d43"/><path d="m324.5 833.5h59c0.16 13.67 0 27.33-0.5 41-9.59 0.66-19.25 0.99-29 1-9.74-6e-3 -19.4-0.33-29-1-0.5-13.66-0.66-27.32-0.5-41z" fill="#0e2d43"/><path d="m420.5 829.5c3.01-0.16 6.01 2e-3 9 0.5 1.98 1.31 3.15 3.15 3.5 5.5 0.14 4-0.18 8-1 12-7.98 6.32-13.98 4.65-18-5-0.96-5.94 1.19-10.27 6.5-13z" fill="#0e2d43"/><path d="m447.5 935.5c7.6-0.81 14.6-3.31 21-7.5 5.77-5.4 4.77-7.23-3-5.5-0.41-0.62-1.08-0.95-2-1-14.56 4.47-29.22 4.97-44 1.5-2.5-1.16-4.33-3-5.5-5.5-0.46 0.59-0.63 1.26-0.5 2-0.93-1.06-1.26-2.4-1-4 8.65 0.64 17.31 0.97 26 1 11.56-1.29 22.22-4.96 32-11 3.62-1.62 6.29-4.29 8-8-0.44-2.58-1.94-3.92-4.5-4-10.25 5.41-21.08 9.25-32.5 11.5-10.06 0.71-20.06 0.21-30-1.5-1.04-2.38-1.04-4.71 0-7 0.41-0.72 1.08-1.22 2-1.5 11.03-1.54 22.03-3.21 33-5 14.1-7.59 24.1-18.76 30-33.5-1.39-5.94-2.56-11.94-3.5-18-0.78-3.01-1.94-5.84-3.5-8.5 20.55 7.25 31.22 21.92 32 44-0.63 21.94-8.63 40.61-24 56-13.53 9.39-28.53 13.06-45 11-1.8-0.63-3.13-1.8-4-3.5 6.48-0.66 12.82-1.33 19-2z" fill="#f5be9b"/><path d="m548.5 760.5c-3.18 1.23-6.52 2.39-10 3.5-1.41 0.36-2.41 1.2-3 2.5 11.51 7.85 23.51 14.85 36 21 2.74 11.2 4.9 22.53 6.5 34 0.66 4.33 0.66 8.66 0 13-3.49-9.32-9.65-16.32-18.5-21-1.14 0.31-1.98 0.98-2.5 2-0.24 7.69 0.25 15.36 1.5 23-7e-3 1.86-0.34 3.53-1 5-2.23-6.74-6.23-12.24-12-16.5-1.52-1-3.19-1.5-5-1.5-0.16 1.69 6e-3 3.36 0.5 5 2.25 3.5 4.25 7.17 6 11 2.03 8.39 4.86 16.39 8.5 24-2.63 9.23-7.8 16.9-15.5 23 1.53-4.62 2.69-9.45 3.5-14.5-0.52-4.86-1.86-9.36-4-13.5-0.84-2.29-1.84-4.62-3-7-0.91 0.62-1.91 0.96-3 1-4.57-16.41-14.91-27.58-31-33.5-9.05-1.89-18.05-3.89-27-6 5.35-4.33 11.01-8.17 17-11.5 8.51 1.52 17.18 3.02 26 4.5 3.66 0.66 7.33 0.66 11 0 1.2-0.9 2.03-2.06 2.5-3.5 2.16-9.67-1.67-13.67-11.5-12 3.31-0.44 6.48-1.44 9.5-3 11.56 1.97 22.39 6.13 32.5 12.5 2.07 0.8 4.07 0.64 6-0.5-10.03-19.69-26.03-27.53-48-23.5-10.84 2.67-21.5 5.83-32 9.5-0.04-3.41 0.45-6.74 1.5-10 10.68-15.04 19.51-31.04 26.5-48 5.08-7.5 9.08-15.5 12-24-0.06 0.43 0.1 0.77 0.5 1 0.66-1.33 1.33-2.66 2-4 0.35 2.3 1.35 2.64 3 1 1.76 0.47 3.43 1.14 5 2 3.95 8.54 7.12 17.37 9.5 26.5-7.33 6.52-15.33 12.35-24 17.5-1.14 1.92-1.3 3.92-0.5 6 8.38 0.97 16.54 2.64 24.5 5z" fill="#264a63"/><path d="m238.5 828.5c1.05-0.14 2.05 0.01 3 0.5-4.41 10.4-6.91 21.23-7.5 32.5 8.2 9.87 17.36 18.7 27.5 26.5 10.54 2.58 21.21 4.58 32 6 5.57 4.84 5.24 9.17-1 13-21.1 2.55-40.43-2.11-58-14-1.29-0.49-2.62-0.65-4-0.5-0.12 2.15 0.37 4.15 1.5 6 15.97 13.27 34.47 19.93 55.5 20-0.54 5.37-3.54 8.21-9 8.5-7.7 0.64-15.36 0.3-23-1-8.87-2.77-17.54-6.1-26-10-1.97-0.49-3.97-0.66-6-0.5 1.55 5.4 4.88 9.57 10 12.5 10.67 5.5 22 8.83 34 10-7.48 4.65-15.48 5.65-24 3-12.02-4.09-22.52-10.59-31.5-19.5-12.1-21.89-14.1-44.56-6-68 7.71-12.58 18.54-20.91 32.5-25z" fill="#f4be9b"/><path d="m152.5 839.5c-6.24 15.31-1.57 25.31 14 30v11c-2.12 0.17-4.12-0.15-6-1-3.89-0.94-7.55-2.44-11-4.5-2.07-0.8-4.07-0.64-6 0.5-2.07 4.49-4.41 8.82-7 13-4.87-7.25-9.87-14.42-15-21.5 3.52-3.55 6.69-7.39 9.5-11.5 1.24-6.58 3.74-12.58 7.5-18 5.01-1.47 9.67-0.8 14 2z" fill="#f0efe9"/><path d="m949.5 808.5c-0.28 0.78-0.78 1.45-1.5 2-0.5 96.99-0.66 194-0.5 291-1.16-97.17-1.33-194.5-0.5-292 0.83-1.49 1.67-1.83 2.5-1z" fill="#000008"/><path d="m185.5 823.5c-12.92 12.52-19.25 27.86-19 46-15.57-4.68-20.24-14.68-14-30 0.83-0.34 1.17-1 1-2 4.71-6.05 10.37-11.22 17-15.5 5.18-0.9 10.18-0.4 15 1.5z" fill="#d94730"/><path d="m493.5 831.5c12.44 1.35 21.27 8.02 26.5 20 4.55 11.05 4.55 22.05 0 33-1.73 2.24-3.9 3.9-6.5 5 2.26-16.26-0.57-31.6-8.5-46-3.33-4.5-7.16-8.5-11.5-12z" fill="#274b64"/><path d="m557.5 843.5c0.16 6.34 0 12.67-0.5 19l-1.5 3c-3.63-7.6-6.46-15.6-8.5-24-1.74-3.82-3.74-7.49-6-11-0.49-1.63-0.66-3.3-0.5-5 1.8-9e-3 3.47 0.49 5 1.5 5.76 4.25 9.76 9.75 12 16.5z" fill="#dc4932"/><path d="m404.5 846.5c8.86 1.02 12.36 6.02 10.5 15-2.91 5.52-7.41 7.35-13.5 5.5-2.16-0.83-3.66-2.33-4.5-4.5-2.51-7.91-0.01-13.24 7.5-16z" fill="#0e2d42"/><path d="m437.5 847.5c11.16-1.67 15.66 2.99 13.5 14-2.81 5.66-7.31 7.5-13.5 5.5-6.58-6.69-6.58-13.19 0-19.5z" fill="#0e2c42"/><path d="m745.5 854.5c62.46 5.2 124.8 13.2 187 24v7c-55.86-7.2-111.53-15.7-167-25.5-6.78-1.52-13.45-3.36-20-5.5z" fill="#2e4b60"/><path d="m539.5 860.5c4.84 13.62 2.01 25.29-8.5 35 3.49-13.43 4.32-27.1 2.5-41 1.08-0.03 2.08-0.37 3-1 1.16 2.37 2.16 4.7 3 7z" fill="#ebebe7"/><path d="m180.5 864.5c1.67 4.69 4.34 8.69 8 12v11c-2.13 1.3-4.13 0.97-6-1-4.21-7.23-4.87-14.56-2-22z" fill="#db4b33"/><path d="m160.5 879.5c1.87 0.84 3.87 1.17 6 1 0.32 5.59 1.65 10.92 4 16-1.22 1.11-2.55 1.28-4 0.5-2.49-1.08-4.83-2.41-7-4-0.71-2.55-2.38-3.72-5-3.5-0.79-4.22-2.46-8.05-5-11.5 2.92 0.68 5.92 1.52 9 2.5 0.91-0.04 1.58-0.37 2-1z" fill="#254a62"/><path d="m77.5 440.5c-0.42 2.87-1.09 5.7-2 8.5 0.52 0.95 1.18 1.78 2 2.5-0.53 1.77-1.36 2.1-2.5 1 0.16 216-0.66 431.67-2.5 647-0.16-215.67 0-431.33 0.5-647 0.83-4.36 2.33-8.36 4.5-12z" fill="#02172e"/><path d="m182.5 886.5c1.86 1.97 3.86 2.3 6 1 1.09 6.2 2.76 12.37 5 18.5-1.16 0.5-2 1.33-2.5 2.5-6.44-5.89-9.27-13.22-8.5-22z" fill="#264a63"/><path d="m470.5 905.5c0.33-0.66 0.66-1.33 1-2 3.5-1.64 5-4.31 4.5-8-0.56-0.52-1.22-0.85-2-1-13.23 7.96-27.57 12.3-43 13-7.45-0.13-14.62-1.47-21.5-4-0.16-2.02 5e-3 -4.02 0.5-6 0.38-0.55 0.88-0.88 1.5-1-1.04 2.28-1.04 4.61 0 7 9.93 1.71 19.93 2.21 30 1.5 11.41-2.24 22.24-6.08 32.5-11.5 2.55 0.08 4.05 1.41 4.5 4-1.71 3.71-4.37 6.37-8 8z" fill="#e9cda4"/><path d="m471.5 903.5c-0.33 0.66-0.66 1.33-1 2-9.77 6.03-20.43 9.7-32 11-6.17-0.88-12.51-1.71-19-2.5 1.96-0.44 4.13-1.27 6.5-2.5 0.16-0.33 0.33-0.66 0.5-1-0.87-0.75-1.87-1.25-3-1.5 7.7-0.23 15.37-0.9 23-2 9.74-2.71 19.07-6.21 28-10.5-0.54 2.53-1.54 4.87-3 7z" fill="#0f2c42"/><path d="m654.5 905.5c8-0.16 16 0 24 0.5 17.4 2.6 26.07 12.77 26 30.5-8 0.66-16 1.33-24 2-0.66-9.99-5.99-14.66-16-14-10.86 0.02-15.36 5.35-13.5 16 1.5 2.83 3.66 5 6.5 6.5 10.86 2.71 21.53 6.04 32 10 14.02 7.9 18.85 19.73 14.5 35.5-3.99 12.65-12.49 20.49-25.5 23.5-12.09 2.27-24.09 1.93-36-1-14.46-5.93-19.79-16.26-16-31 6.64-0.83 13.31-1.33 20-1.5 0.5 11 6.34 16.33 17.5 16 13.8 0.54 19.13-5.78 16-19l-3.5-3.5c-13.14-3.86-26.14-8.2-39-13-4.45-2.74-7.62-6.57-9.5-11.5-5.84-23.99 2.98-39.32 26.5-46z" fill="#f0eee8"/><path d="m543.5 907.5h76v20h-27v87h-23v-87h-26v-20z" fill="#e9ebea"/><path d="m545.5 909.5h73v16c-9.25-0.31-18.41 0.01-27.5 1-0.5 28.66-0.66 57.33-0.5 86h-19c0.16-28.33 0-56.66-0.5-85l-1.5-1.5c-7.99-0.5-15.99-0.66-24-0.5v-16z" fill="#efede7"/><path d="m802.5 971.5c0.35 4 0.85 8 1.5 12 3.48-13.93 6.65-27.93 9.5-42 3.26-11.07 5.93-22.41 8-34 8.02-0.33 16.02 2e-3 24 1-9.62 35.17-18.62 70.5-27 106h-29c-3.48-23.08-7.48-46.08-12-69-6.41 22.9-12.41 45.9-18 69h-30c-5.35-35.44-11.35-70.78-18-106 8.89-1.31 17.72-1.31 26.5 0 3.46 25.28 6.46 50.61 9 76 6.35-25.42 13.02-50.75 20-76 8.44-1.31 16.94-1.31 25.5 0 3.46 21.1 6.79 42.1 10 63z" fill="#f0eee8"/><path d="m885.5 906.5c9.41-0.85 18.41 0.64 27 4.5 6.71 5.59 10.04 12.75 10 21.5-6.97 0.83-13.97 1.49-21 2-0.25-3.67-1.92-6.5-5-8.5-9.87-2.37-16.7 1.12-20.5 10.5-1.97 5.18-2.63 10.52-2 16 9.9-7.48 20.73-8.98 32.5-4.5 16.25 9.74 21.75 23.91 16.5 42.5-6.23 17.8-18.9 26.47-38 26-22.18-2.86-34.18-15.52-36-38-2.92-21.05 1.4-40.39 13-58 6.52-7.05 14.35-11.72 23.5-14z" fill="#f0eee8"/><path d="m465.5 922.5c-13.42 3.68-27.08 4.85-41 3.5-4.65-0.65-8.32-2.82-11-6.5-0.13-0.73 0.03-1.4 0.5-2 1.16 2.5 3 4.33 5.5 5.5 14.77 3.47 29.44 2.97 44-1.5 0.91 0.04 1.58 0.37 2 1z" fill="#f6dfaf"/><path d="m332.5 922.5h5v15c-10.35 0.76-20.35-0.73-30-4.5 8.17-4.09 16.5-7.59 25-10.5z" fill="#274b63"/><path d="m379.5 916.5h17c0.28 1.78-0.04 3.45-1 5-14.09 6.52-28.75 11.18-44 14v-15c9.47-1.25 18.81-2.59 28-4z" fill="#264b63"/><path d="m471.5 903.5c1.45-2.12 2.45-4.46 3-7-8.92 4.28-18.25 7.78-28 10.5-7.62 1.09-15.29 1.76-23 2 1.12 0.24 2.12 0.74 3 1.5-0.16 0.33-0.33 0.66-0.5 1-2.37 1.22-4.53 2.06-6.5 2.5 6.48 0.78 12.82 1.61 19 2.5-8.68-0.02-17.34-0.35-26-1-0.26 1.59 0.06 2.93 1 4 2.67 3.67 6.34 5.84 11 6.5 13.91 1.35 27.57 0.18 41-3.5 7.77-1.73 8.77 0.09 3 5.5-6.39 4.18-13.39 6.68-21 7.5-0.43 0.06-0.77-0.1-1-0.5 0.66-0.33 1.33-0.66 2-1-3.06 0.04-5.4-1.11-7-3.5 1.22-0.78 2.56-1.28 4-1.5-10.39 0.47-20.39-1.19-30-5-3.54-2.59-4.88-6.09-4-10.5 2.02 0.16 4.02-5e-3 6-0.5-0.66-0.33-1.33-0.66-2-1 1.33-1 1.33-2 0-3 2-0.33 4-0.66 6-1-3.37-0.45-6.71-1.11-10-2-1.25-0.41-1.92-1.25-2-2.5 6.87 2.52 14.04 3.86 21.5 4 15.42-0.69 29.76-5.03 43-13 0.77 0.14 1.43 0.47 2 1 0.5 3.68-0.99 6.35-4.5 8z" fill="#0e233c"/><path d="m813.5 941.5c-2.84 14.06-6.01 28.06-9.5 42-0.64-3.99-1.14-7.99-1.5-12-0.13-0.73 0.03-1.4 0.5-2 0.17 2.21 0.83 4.21 2 6 2.02-11.66 4.86-22.99 8.5-34z" fill="#080f1e"/><path d="m884.5 963.5c8.34-1.08 13.84 2.24 16.5 10 0.85 5.75 0.51 11.42-1 17-4.46 6.58-10.63 8.75-18.5 6.5-4.83-1.81-7.66-5.31-8.5-10.5-2.44-11.12 1.39-18.78 11.5-23z" fill="#112b40"/><path d="m485.5 940.5c10.66 6.29 17.16 15.62 19.5 28 0.66 7 0.66 14 0 21-1.73 8.03-3.56 16.03-5.5 24-36 0.17-72 0-108-0.5 7.04-13.26 15.21-25.76 24.5-37.5 0.49-1.29 0.65-2.62 0.5-4-7.18-0.1-13.84 1.72-20 5.5-6.47 4.48-12.31 9.64-17.5 15.5 4.95-20.22 16.12-36.22 33.5-48 8.2 7.4 17.87 11.07 29 11 16.57 0.14 31.24-4.85 44-15z" fill="#386a63"/><path d="m287.5 959.5c0.06-0.54 0.39-0.87 1-1 13.11 6.42 26.95 10.09 41.5 11 6.24-0.23 12.41-1.06 18.5-2.5 8.5-2.11 16.84-4.44 25-7-8.46 11.2-14.12 23.7-17 37.5-13.14 2.35-25.81 0.85-38-4.5-3.46-2.46-6.63-5.29-9.5-8.5-6.28-9.11-13.45-17.44-21.5-25z" fill="#386a63"/><path d="m543.5 907.5v20h26v87h23c-7.81 0.99-15.81 1.33-24 1v-87h-26c-0.32-7.18 9e-3 -14.18 1-21z" fill="#01081c"/><path d="m178.5 926.5c8.29-0.67 16.29 0.49 24 3.5 13.06 13.86 29.06 22.53 48 26 9.06 13.27 14.89 27.77 17.5 43.5-5.82-7.48-11.98-14.65-18.5-21.5-5.9-2.84-11.73-5.68-17.5-8.5-3.73 1.04-4.4 3.04-2 6 7.29 12.41 14.46 24.92 21.5 37.5-35.33 0.67-70.66 0.67-106 0-7.5-17.62-9-35.79-4.5-54.5 7.76-16.26 20.26-26.93 37.5-32z" fill="#386a63"/><path d="m619.5 927.5c-8.48 0.99-17.15 1.32-26 1 0.33 28.83-2e-3 57.5-1 86v-87h27z" fill="#00010b"/></g><g transform="matrix(.26458 0 0 .26458 -12.78 -62.5)" image-rendering="optimizeQuality"><path d="m138.5 1036.5c11.1-1.21 21.44 0.95 31 6.5 6.52 6.05 9.85 13.55 10 22.5h-20c-0.73-6.57-4.4-10.4-11-11.5-10.71-0.96-17.21 3.87-19.5 14.5-2.52 12.63-1.52 24.97 3 37 6.29 7.33 13.79 8.83 22.5 4.5 2.86-2.22 4.86-5.05 6-8.5 6.31-0.85 12.64-0.85 19 0-1.29 16.08-9.96 25.24-26 27.5-12.86 2.2-24.52-0.47-35-8-5.49-6.15-8.99-13.31-10.5-21.5-3.59-16.76-1.59-32.76 6-48 6.11-8.47 14.28-13.47 24.5-15z" fill="#f0eee9"/></g><g transform="matrix(.26458 0 0 .26458 -3.56 -62.17)" image-rendering="optimizeQuality"><path d="m432.5 1037.5v18h-25c-0.99 24.16-1.33 48.49-1 73h-20v-73h-25v-18h71z" fill="#efede8"/></g><g transform="matrix(.26458 0 0 .26458 -11.3 -61.64)" fill="#da4932" image-rendering="optimizeQuality" stroke="#fff"><path d="m820.5 1055.5h-42v19h39v17h-39c-1.95 6.25-2.62 12.92-2 20h43v15h-59c0.32-29.24-5e-3 -58.41-1-87.5 20.33-0.5 40.66-0.67 61-0.5v15c-14-0.17-28 0-42 0.5 14.17 0.17 28.17 0.67 42 1.5z" fill="#da4932" stroke="#fff"/></g><g transform="matrix(.26458 0 0 .26458 -10.78 -133.12)" image-rendering="optimizeQuality"><g transform="translate(5.75 266.93)"><path d="m219.5 1036.5c13.13-1.54 25.13 1.29 36 8.5 7.21 6.94 11.37 15.44 12.5 25.5 2.06 14.95 0.06 29.28-6 43-5.8 8.79-13.97 13.95-24.5 15.5-11.26 1.85-21.93 0.18-32-5-8.59-6.33-13.75-14.83-15.5-25.5-3.52-16.43-1.52-32.1 6-47 6.23-7.69 14.06-12.69 23.5-15z" fill="#f0eee8"/><path d="m224.5 1053.5c12.53-0.96 20.03 4.71 22.5 17 1.13 10.48 0.46 20.82-2 31-4.24 9.2-11.41 12.7-21.5 10.5-8.01-3.51-12.51-9.68-13.5-18.5-0.87-8.73-0.54-17.4 1-26 2.01-7.18 6.51-11.85 13.5-14z" fill="#102b40"/></g></g><g transform="matrix(.26458 0 0 .26458 1.32 -133.09)" image-rendering="optimizeQuality" stroke="#fff"><g transform="translate(5.75 266.93)" fill="#da4932"><path d="m553.5 1036.5c32.98-2.35 49.64 12.98 50 46 1.41 14.89-2.92 27.73-13 38.5-13.97 8.88-28.97 10.88-45 6-11.08-4.75-18.25-12.92-21.5-24.5-4.15-16.03-3.15-31.7 3-47 6.23-10.09 15.07-16.42 26.5-19z" fill="#da4932" stroke="#fff"/></g><g transform="translate(5.75 266.93)"><path d="m559.5 1053.5c13.32-0.58 20.82 5.75 22.5 19 1.52 11.07 0.19 21.74-4 32-5.13 6.82-11.96 9.32-20.5 7.5-8.51-3.18-13.01-9.34-13.5-18.5-0.88-9.06-0.54-18.06 1-27 2.54-7.05 7.37-11.38 14.5-13z" fill="#102b40" stroke="#fff"/></g></g><g transform="matrix(.26458 0 0 .26458 -2.34 -132)" image-rendering="optimizeQuality"><g transform="translate(-386.5 264.78)" clip-rule="evenodd" fill-rule="evenodd" image-rendering="optimizeQuality" shape-rendering="geometricPrecision"><path d="m905.5 1126.5c-6.81 0.99-13.81 1.32-21 1-3.33-6-6.66-12-10-18-1.09-4.2-2.76-8.2-5-12-4.28-0.99-8.61-1.33-13-1-0.99 10.15-1.32 20.49-1 31h-19v-90c15.33-0.17 30.67 0 46 0.5 16.88 5.24 24.04 16.74 21.5 34.5-1.27 9.9-6.44 16.9-15.5 21 5.93 10.87 11.6 21.87 17 33z" fill="#f0efe9"/><path d="m856.5 1054.5c7.4-0.35 14.73 0.15 22 1.5 0.83 0.83 1.66 1.67 2.5 2.5 1.54 4.55 1.87 9.21 1 14-1.48 3.32-3.98 5.32-7.5 6h-18v-24z" fill="#10293d"/><path d="m856.5 1054.5v24h18c-6.14 0.99-12.47 1.32-19 1-0.32-8.52 7e-3 -16.85 1-25z" fill="#5e707d"/></g></g><g transform="matrix(.26458 0 0 .26458 92.57 -132)" image-rendering="optimizeQuality"><g transform="translate(-386.5 264.78)" clip-rule="evenodd" fill-rule="evenodd" image-rendering="optimizeQuality" shape-rendering="geometricPrecision"><path d="m905.5 1126.5c-6.81 0.99-13.81 1.32-21 1-3.33-6-6.66-12-10-18-1.09-4.2-2.76-8.2-5-12-4.28-0.99-8.61-1.33-13-1-0.99 10.15-1.32 20.49-1 31h-19v-90c15.33-0.17 30.67 0 46 0.5 16.88 5.24 24.04 16.74 21.5 34.5-1.27 9.9-6.44 16.9-15.5 21 5.93 10.87 11.6 21.87 17 33z" fill="#f0efe9"/><path d="m856.5 1054.5c7.4-0.35 14.73 0.15 22 1.5 0.83 0.83 1.66 1.67 2.5 2.5 1.54 4.55 1.87 9.21 1 14-1.48 3.32-3.98 5.32-7.5 6h-18v-24z" fill="#10293d"/><path d="m856.5 1054.5v24h18c-6.14 0.99-12.47 1.32-19 1-0.32-8.52 7e-3 -16.85 1-25z" fill="#5e707d"/></g></g><g transform="matrix(.26458 0 0 .26458 5.32 -61.91)" fill="#da4932" image-rendering="optimizeQuality" stroke="#fff"><path d="m636.5 1037.5v72c12.48 1 25.15 1.33 38 1v17h-58v-90h20z" fill="#da4932" stroke="#fff"/></g><g transform="matrix(.26458 0 0 .26458 -6.24 -62.23)" image-rendering="optimizeQuality"><path d="m321.5 1076.5c2.41 5.82 5.07 11.48 8 17 0.28 0.79 0.78 1.46 1.5 2 0.5-19.33 0.66-38.66 0.5-58h18v90h-21c-8.42-15.86-17.09-31.53-26-47-0.88-2.76-2.04-5.43-3.5-8-0.5 18-0.66 36-0.5 54-5.91 1.96-12.24 2.62-19 2v-91c7-0.17 14 0 21 0.5 6.9 12.98 13.9 25.81 21 38.5z" fill="#f0eee9"/></g><text transform="matrix(1.19,0,0,1.08,-678.36,-907.43)" fill="#f0eee8" image-rendering="optimizeQuality" stroke="#f0eee8" text-rendering="geometricPrecision" style="shape-inside:url(#rect167);white-space:pre" xml:space="preserve"><tspan x="0" y="0">2</tspan></text></g><text transform="matrix(.87363 0 0 .73033 -408.46 -385.91)" fill="#f0eee8" stroke="#f0eee8" style="shape-inside:url(#rect141);white-space:pre" xml:space="preserve"><tspan x="670.38477" y="837.47921">2</tspan></text></svg>
